<?xml version="1.0" encoding="iso-8859-1"?>
<!-- Generator: Adobe Illustrator 19.0.0, SVG Export Plug-In . SVG Version: 6.00 Build 0)  -->
<svg version="1.1" id="Layer_1" xmlns="http://www.w3.org/2000/svg" xmlns:xlink="http://www.w3.org/1999/xlink" x="0px" y="0px"
	 viewBox="0 0 512 512" style="enable-background:new 0 0 512 512;" xml:space="preserve">
<path style="fill:#EAFFFF;" d="M489.739,512H22.261V66.783c0-24.588,19.933-44.522,44.522-44.522h378.435
	c24.588,0,44.522,19.933,44.522,44.522V512z"/>
<path style="fill:#7F932A;" d="M75.625,22.151l11.776,117.761c1.448,14.48-9.923,27.045-24.476,27.045H39.373
	c-14.553,0-25.924-12.565-24.476-27.046L26.673,22.15C27.931,9.576,38.511,0,51.149,0l0,0C63.786,0,74.367,9.576,75.625,22.151z"/>
<path style="fill:#A9A632;" d="M136.638,94.438l4.222,37.996c2.046,18.416-12.369,34.522-30.899,34.522h-8.444
	c-18.53,0-32.945-16.106-30.899-34.522l4.222-37.996c1.75-15.744,15.057-27.656,30.899-27.656l0,0
	C121.581,66.783,134.889,78.694,136.638,94.438z"/>
<path style="fill:#BCAE8A;" d="M434.087,339.478V512H133.565V333.913H38.957c-3.073,0-5.565-2.492-5.565-5.565V166.957h345.043
	v166.957h50.087C431.595,333.913,434.087,336.405,434.087,339.478z"/>
<path style="fill:#C5EAD4;" d="M33.391,178.087h66.783v155.826H38.957c-3.073,0-5.565-2.492-5.565-5.565V178.087z M194.783,211.478
	h-22.261c-3.073,0-5.565,2.492-5.565,5.565v77.913c0,3.073,2.492,5.565,5.565,5.565h22.261c3.073,0,5.565-2.492,5.565-5.565v-77.913
	C200.348,213.97,197.856,211.478,194.783,211.478z M294.957,211.478h-22.261c-3.073,0-5.565,2.492-5.565,5.565v77.913
	c0,3.073,2.492,5.565,5.565,5.565h22.261c3.073,0,5.565-2.492,5.565-5.565v-77.913C300.522,213.97,298.03,211.478,294.957,211.478z"
	/>
<path style="fill:#998C6E;" d="M133.565,333.913h294.957c3.073,0,5.565,2.492,5.565,5.565V512H133.565V333.913z"/>
<path style="fill:#A07040;" d="M434.087,339.478V512H300.522V333.913h128C431.595,333.913,434.087,336.405,434.087,339.478z
	 M411.826,172.522v-22.261c0-3.073-2.492-5.565-5.565-5.565H5.565c-3.073,0-5.565,2.492-5.565,5.565v22.261
	c0,3.073,2.492,5.565,5.565,5.565h400.696C409.334,178.087,411.826,175.595,411.826,172.522z"/>
<path style="fill:#A0A092;" d="M300.522,333.913h128c3.073,0,5.565,2.492,5.565,5.565v50.087H300.522V333.913z"/>
<path style="fill:#606D11;" d="M178.087,445.217L178.087,445.217c0,36.883-29.9,66.783-66.783,66.783H66.783
	C29.9,512,0,482.1,0,445.217l0,0c0-36.883,29.9-66.783,66.783-66.783h44.522C148.187,378.435,178.087,408.334,178.087,445.217z"/>
<path style="fill:#A9A632;" d="M211.478,478.609L211.478,478.609c0,18.442-14.949,33.391-33.391,33.391h-44.522
	c-18.442,0-33.391-14.949-33.391-33.391l0,0c0-18.442,14.949-33.391,33.391-33.391h44.522
	C196.529,445.217,211.478,460.167,211.478,478.609z"/>
<path style="fill:#A0A092;" d="M498.087,269.913v233.739c0,4.61-3.738,8.348-8.348,8.348s-8.348-3.738-8.348-8.348V269.913
	c0-4.61,3.738-8.348,8.348-8.348S498.087,265.303,498.087,269.913z"/>
<path style="fill:#C5EAD4;" d="M512,22.261L512,22.261c0,12.295-9.966,22.261-22.261,22.261H386.562
	c1.899,3.277,3.003,7.071,3.003,11.13l0,0c0,12.295-9.966,22.261-22.261,22.261h-89.043c-12.295,0-22.261-9.966-22.261-22.261l0,0
	c0-12.295,9.966-22.261,22.261-22.261h36.394c-1.899-3.277-3.003-7.071-3.003-11.13l0,0C311.652,9.966,321.618,0,333.913,0h155.826
	C502.034,0,512,9.966,512,22.261z M489.739,233.739c-12.295,0-22.261,9.966-22.261,22.261c0,12.295,9.966,22.261,22.261,22.261
	S512,268.295,512,256C512,243.705,502.034,233.739,489.739,233.739z"/>
<path style="fill:#606D11;" d="M512,503.652c0,4.61-3.738,8.348-8.348,8.348H8.348C3.738,512,0,508.262,0,503.652
	s3.738-8.348,8.348-8.348h495.304C508.262,495.304,512,499.042,512,503.652z"/>
<g>
</g>
<g>
</g>
<g>
</g>
<g>
</g>
<g>
</g>
<g>
</g>
<g>
</g>
<g>
</g>
<g>
</g>
<g>
</g>
<g>
</g>
<g>
</g>
<g>
</g>
<g>
</g>
<g>
</g>
</svg>
